<?xml version="1.0" encoding="iso-8859-1"?>
<!-- Generator: Adobe Illustrator 21.0.0, SVG Export Plug-In . SVG Version: 6.00 Build 0)  -->
<svg version="1.1" id="Layer_1" xmlns="http://www.w3.org/2000/svg" xmlns:xlink="http://www.w3.org/1999/xlink" x="0px" y="0px"
	 viewBox="0 0 200 199" style="enable-background:new 0 0 200 199;" xml:space="preserve">
<g>
	<path style="fill:none;" d="M79.2,63.3L49.4,93.1c-1.9,1.9-1.9,5.1,0,7L79.2,130c1.9,1.9,5.1,1.9,7,0l5.3-5.3l-18.9-18.9
		c-4.7-4.7-4.7-12.3,0-17l19.6-19.6l-6-6C84.3,61.4,81.1,61.4,79.2,63.3z"/>
	<path style="fill:none;" d="M137.4,105.1l-19.6,19.6l6,6c1.9,1.9,5.1,1.9,7,0l29.8-29.8c1.9-1.9,1.9-5.1,0-7L130.8,64
		c-1.9-1.9-5.1-1.9-7,0l-5.3,5.3l18.9,18.9C142,92.8,142,100.5,137.4,105.1z"/>
	<path style="fill:none;" d="M116.1,93.1l-10.7-10.7L93.9,93.8c-1.9,1.9-1.9,5.1,0,7l10.7,10.7l11.4-11.4
		C118,98.2,118,95.1,116.1,93.1z"/>
	<path style="fill:#0035AA;" d="M137.4,105.1c4.7-4.7,4.7-12.3,0-17l-18.9-18.9l-13.1,13.1L116.1,93c1.9,1.9,1.9,5.1,0,7l-11.4,11.4
		l-13.1,13.1l-5.3,5.3c-1.9,1.9-5.1,1.9-7,0L49.5,100c-1.9-1.9-1.9-5.1,0-7l29.8-29.8c1.9-1.9,5.1-1.9,7,0l6,6l13.1-13.1L91.2,42
		c-4.7-4.7-12.3-4.7-17,0L28.1,88.2c-4.7,4.7-4.7,12.3,0,17l46.1,46.1c4.7,4.7,12.3,4.7,17,0l13.4-13.4l13.1-13.1L137.4,105.1z"/>
	<path style="fill:#20A0FF;" d="M105.4,56.2L92.2,69.3L72.6,88.9c-4.7,4.7-4.7,12.3,0,17l18.9,18.9l13.1-13.1L93.9,101
		c-1.9-1.9-1.9-5.1,0-7l11.4-11.4l13.1-13.1l5.3-5.3c1.9-1.9,5.1-1.9,7,0L160.5,94c1.9,1.9,1.9,5.1,0,7l-29.8,29.8
		c-1.9,1.9-5.1,1.9-7,0l-6-6l-13.1,13.1l14.1,14.1c4.7,4.7,12.3,4.7,17,0l46.1-46.1c4.7-4.7,4.7-12.3,0-17l-46.1-46.1
		c-4.7-4.7-12.3-4.7-17,0L105.4,56.2z"/>
</g>
</svg>
