<svg id="cf0f28fe-e47a-4a25-823a-39895460872c" data-name="Layer 1" xmlns="http://www.w3.org/2000/svg" viewBox="0 0 200 200"><title>chair</title><path d="M64.449,45.667h67.389a20.495,20.495,0,0,1,20.495,20.495v49.505a0,0,0,0,1,0,0H43.954a0,0,0,0,1,0,0V66.162A20.495,20.495,0,0,1,64.449,45.667Z" style="fill:#fff"/><path d="M160.333,123.667H35.954V66.162a28.527,28.527,0,0,1,28.5-28.5h67.389a28.528,28.528,0,0,1,28.5,28.5Zm-108.379-16h92.379V66.162a12.51,12.51,0,0,0-12.5-12.5H64.449a12.51,12.51,0,0,0-12.5,12.5Z" style="fill:#20a0ff"/><path d="M42.454,89.25h3a17.5,17.5,0,0,1,17.5,17.5V155.5a0,0,0,0,1,0,0h-38a0,0,0,0,1,0,0V106.75A17.5,17.5,0,0,1,42.454,89.25Z" style="fill:#fff"/><path d="M69.954,162.5h-52V106.75a24.528,24.528,0,0,1,24.5-24.5h3a24.528,24.528,0,0,1,24.5,24.5Zm-38-14h24V106.75a10.512,10.512,0,0,0-10.5-10.5h-3a10.512,10.512,0,0,0-10.5,10.5Z" style="fill:#20a0ff"/><rect x="62.954" y="113.667" width="72.5" height="41.833" style="fill:#fff"/><path d="M142.454,162.5h-86.5V106.667h86.5Zm-72.5-14h58.5V120.667h-58.5Z" style="fill:#20a0ff"/><path d="M151.454,89.25h3a17.5,17.5,0,0,1,17.5,17.5V155.5a0,0,0,0,1,0,0h-38a0,0,0,0,1,0,0V106.75A17.5,17.5,0,0,1,151.454,89.25Z" style="fill:#fff"/><path d="M178.954,162.5h-52V106.75a24.528,24.528,0,0,1,24.5-24.5h3a24.528,24.528,0,0,1,24.5,24.5Zm-38-14h24V106.75a10.512,10.512,0,0,0-10.5-10.5h-3a10.512,10.512,0,0,0-10.5,10.5Z" style="fill:#20a0ff"/></svg>