<svg id="f396c117-60ba-4729-ad25-a355aa5cf80a" data-name="Layer 1" xmlns="http://www.w3.org/2000/svg" viewBox="0 0 200 200"><title>chair</title><path d="M140.954,162.5h-85V110h85ZM69.711,149.336H127.2V123.164H69.711Z" style="fill:#20a0ff"/><path d="M69.954,162.5h-52V106.75a24.528,24.528,0,0,1,24.5-24.5h3a24.528,24.528,0,0,1,24.5,24.5Zm-38-14h24V106.75a10.512,10.512,0,0,0-10.5-10.5h-3a10.512,10.512,0,0,0-10.5,10.5Z" style="fill:#20a0ff"/><rect x="69.954" y="108.667" width="57" height="16" style="fill:#20a0ff"/><path d="M144.333,67.162V84.309a24.416,24.416,0,0,1,7.121-1.059h3a24.458,24.458,0,0,1,5.879.718V67.162a28.528,28.528,0,0,0-28.5-28.5H64.449a28.527,28.527,0,0,0-28.5,28.5v16.97a24.428,24.428,0,0,1,6.5-.882h3a24.428,24.428,0,0,1,6.5.882V67.162a12.51,12.51,0,0,1,12.5-12.5h67.389A12.51,12.51,0,0,1,144.333,67.162Z" style="fill:#20a0ff"/><path d="M178.954,162.5h-52V106.75a24.528,24.528,0,0,1,24.5-24.5h3a24.528,24.528,0,0,1,24.5,24.5Zm-38-14h24V106.75a10.512,10.512,0,0,0-10.5-10.5h-3a10.512,10.512,0,0,0-10.5,10.5Z" style="fill:#20a0ff"/></svg>